<?xml version="1.0" encoding="utf-8"?>
<!-- Generator: Adobe Illustrator 22.0.1, SVG Export Plug-In . SVG Version: 6.00 Build 0)  -->
<svg version="1.1" id="Calque_1" xmlns="http://www.w3.org/2000/svg" xmlns:xlink="http://www.w3.org/1999/xlink" x="0px" y="0px"
	 viewBox="0 0 1000 1000" style="enable-background:new 0 0 1000 1000;" xml:space="preserve">
<style type="text/css">
	.st0{fill:#FFFFFF;}
	.st1{fill:url(#SVGID_1_);}
</style>
<g>
	<path d="M899.8,412.4c-6.4-39.3-10.4-80.4-15.6-120.9c-6.4-50.2-12.9-100.7-23.5-150.2c-4.1-19.3-8.5-39.1-17-57
		c-2.1-4.4-8.6-4.7-11.8-1.5c-44.1,44.4-78.7,97.6-101.7,155.6c-23-59.7-58.2-114.3-103.3-159.7c-3.2-3.2-9.7-2.9-11.8,1.5
		c-25.6,54-44.1,111.1-54.6,169.9c-21.8-11.9-44.8-21.6-68.8-28.3c-51.5-14.4-106.2-14.7-157.8-0.6C280.1,236,230.7,265.6,189.5,303
		c-38.3,34.8-68.6,77.7-88.5,125.4c-23.5,56.4-31.8,118.1-29.5,178.9c2.3,58.9,13.8,118.3,36.9,172.7c21.7,51,54.6,98,99.6,131
		c47.9,35,106.7,47.2,165.3,42.1c29.2-2.5,57.8-8.8,86.4-15.4c23.2-5.3,46.4-11.2,68.9-18.9c48.3-16.5,93.5-42.1,127.5-80.8
		c9.3-10.5,17.7-21.8,25.2-33.7c0.1-0.1,0.2-0.1,0.4-0.2c29.6-15.6,54-40.2,68.3-70.6c7.7-16.2,13.4-35.3,6.6-52.9
		c-6.2-16.1-22-26-39.3-23.3c-14.8,2.3-25.7,12-32.5,24.4c-4.9-12.1-13.3-22.8-26-27.6c-16-6-34.1-1.7-43.7,12.9
		c-10.5,15.9-8.3,35.4-2.2,52.4c5.6,15.7,14,30.5,24.4,43.5c9.7,12,21,22.4,33.6,31.1c-0.9,0.6-1.7-9.6-2.4-8.6
		c-27.7,43.4-67.4,81.5-114.2,102.3c-42.3,18.8-88.5,22.9-133.7,32.1c-59.1,12.1-122.1,13.3-176.9-15.4
		c-44.5-23.3-79.2-61.9-103.8-105.2c-27.8-49.1-43.4-93.8-50.1-149.6c-7.1-58.6-5-119,11.1-176c14.2-50.5,39.7-97.4,75.1-136.3
		c34.5-37.8,77.5-69.2,124.8-89c46.9-19.7,98.8-27.4,149.4-20.2c53.7,7.7,103.7,30.8,147,63c11.7,8.7,22.8,18.1,33.5,27.9
		c7.1,6.5,17.7-4.1,10.6-10.6c-20.6-18.9-43-36.1-66.9-50.6c9.6-55.5,21.2-104.7,44.5-156c44,46.5,74.1,92.7,94.7,153.4
		c0,0.1,3.7,9.7,3.7,9.7c-2.9,9.1,16.4,7.9,19.5-1.1c20.5-60.5,54.1-116.1,97.9-162.5c1.1,3.2,2.2,6.5,3.2,9.8
		c2.7,9.2,5,18.5,7.1,27.8c5.1,23,9.1,46.2,12.7,69.5c7.7,49.3,13.6,98.9,19.7,148.4c2.4,19.8,4.8,39.6,8,59.3
		C886.9,425.9,901.3,421.9,899.8,412.4z M632.2,729.5c-6.3-12.8-12.6-28.2-10.2-42.7c2.1-12.2,11-26.4,24.1-25.4
		c15.2,1.2,25.2,18.7,28.3,32.7c0.6,2.8,2.3,5.2,4.9,6c2,5.1,11.6,5.5,13.5-1.6c3.3-12.3,12-28.5,25.2-31.1
		c12.9-2.5,23.4,9,26.7,21.4c3.8,14.3-2.5,29.6-8.9,42.1c-6.1,12.1-14,23.1-23.2,32.9c-8.2,8.7-17.7,16.5-27.9,22.8
		C662.4,773.1,643.7,753,632.2,729.5z"/>
	<g>
		<path d="M902.2,411.8c-6.3-38.6-10.1-77.6-15-116.4c-4.8-37.9-9.7-75.9-16.2-113.6c-3.2-18.5-6.8-36.9-11-55.2
			c-2-8.8-4.3-17.6-7.2-26.2c-1.3-4-2.8-7.9-4.5-11.8c-1.2-2.9-2.2-6.2-4.7-8.3c-4-3.3-9.7-2.5-13.4,0.7
			c-6.4,5.5-11.9,12.4-17.5,18.6c-10.9,12.3-21.1,25.1-30.6,38.4c-22.1,30.9-40.2,64.4-54.2,99.7c1.6,0,3.2,0,4.8,0
			c-18.3-47.3-44.1-91.6-76.5-130.6c-7.9-9.6-16.3-18.8-25-27.7c-3-3.1-5.9-5.6-10.4-5.2c-5.2,0.4-7.2,3.9-9.2,8.2
			c-11.6,24.7-21.7,50.1-30.2,76c-9.8,29.8-17.5,60.3-23.1,91.2c1.2-0.5,2.4-1,3.7-1.5c-58.4-31.7-124.6-45.9-190.7-36.9
			c-61.2,8.4-118.3,36.5-166.1,75.2c-47,38.1-84.2,87.1-107.2,143.1c-25,60.7-32.3,127.5-28.1,192.6C74,686.4,89.1,751,119,808.3
			c26.7,51.1,66.7,97.9,119.1,123.8c26.6,13.2,55.6,20.8,85.1,23.5c32.6,3,65.1-0.6,97.1-6.8c62.8-12.1,127.6-27.3,182.1-62.1
			c25.2-16,47.6-36,65.9-59.7c4.8-6.2,8.9-12.9,13.7-19.2c1.9-2.6,5-3.7,7.8-5.4c3.1-1.9,6.2-3.8,9.2-5.9
			c11.5-7.9,22.1-17.3,31.1-27.9c9-10.5,16.6-22.2,22.4-34.7c6.3-13.4,11.1-28.4,9.2-43.3c-3.3-25.6-28.1-42.8-53-33.6
			c-11.4,4.2-20.1,12.9-26,23.4c1.5,0.2,3,0.4,4.6,0.6c-5.6-13.7-15.3-25.5-29.8-30c-13.6-4.3-29.2-1.6-39.5,8.6
			c-25.8,25.5-7.6,68.4,9.1,93.5c11.3,17,25.9,31.5,42.6,43.1c0.4-1.6,0.8-3.1,1.3-4.7c-0.1,0-0.1,0-0.2,0c0.7,0.4,1.4,0.8,2.2,1.2
			c-1.8-2.5-0.4-6.6-2.5-9.1c-0.7-0.8-2.1-0.9-3-0.4c-1.7,0.9-2.6,3.5-3.7,5c-1.8,2.7-3.6,5.4-5.5,8c-4.3,6-8.7,11.9-13.4,17.5
			c-8.6,10.5-18,20.4-28,29.5c-20.1,18.4-43.1,33.8-68.3,44.3c-27.7,11.5-57.4,17.2-86.9,22.3c-29.1,5.1-58.1,11.9-87.7,14.4
			c-28.5,2.4-57.6,1.4-85.5-5.6c-27.5-6.8-53-19.6-75.4-36.9c-43-33.1-72.9-80.5-93.9-130c-22.7-53.5-31.3-112.1-30.6-170
			c0.7-60.3,13.2-120.6,41.4-174.3C182.7,307.6,290,231.5,404.9,228.3c58.7-1.6,115.9,17,165.4,47.8c12.3,7.7,24.3,16.1,35.6,25.2
			c5.9,4.7,11.7,9.7,17.4,14.7c3.8,3.4,7.6,8.3,13.3,7.8c7.4-0.7,12.2-9.2,7.7-15.5c-3.7-5.1-10.1-9.4-14.9-13.5
			c-5.7-4.9-11.6-9.6-17.6-14.2c-11.6-8.9-23.7-17.1-36.2-24.7c0.4,0.9,0.8,1.9,1.1,2.8c9.2-53.3,21.8-105.9,44.3-155.4
			c-1.3,0.2-2.6,0.3-3.9,0.5c41.1,43.6,73.5,93.1,93.2,149.9c1.3,3.6,3.1,7.2,4.1,10.9c0.4,1.6-0.1,0.6,0.1,2.8
			c0.1,1.5,0.7,2.9,1.8,4c5.1,5.2,15.7,2.2,20.2-2.3c3.9-3.9,4.9-10.7,6.7-15.6c2.9-7.8,6-15.5,9.3-23.2c6.2-14.1,13-27.8,20.6-41.2
			c17.6-31,38.9-59.8,63.3-85.8c-1.4-0.4-2.8-0.7-4.2-1.1c8.1,23.4,12.8,47.9,17.2,72.2c4.6,25.5,8.4,51.1,11.9,76.7
			c7,50.7,12.1,101.8,19.5,152.5c1,6.9,0.3,19.9,9.9,20.6c6.7,0.5,12.2-5.3,11.5-11.9c-0.3-3.2-5.3-3.2-5,0c0.3,3.3-1.3,6.2-4.7,6.8
			c-5,0.9-5-4.7-5.6-8.2c-1.8-11.5-3.3-23.1-4.8-34.7c-2.8-22.7-5.6-45.4-8.4-68c-5.6-44.8-11.4-89.6-19.4-134.1
			c-4.4-24.6-9.2-49.5-17.4-73.2c-0.6-1.7-2.8-2.6-4.2-1.1c-40.3,42.9-72.1,93.3-93,148.3c-1.3,3.5-2.6,6.9-3.8,10.4
			c-1,2.8-1.5,5.7-3.9,7.7c-2.5,2-8.4,4.1-11.5,2.2c-1.7-1.1-0.7-2.1-1-3.8c-0.2-1.2-0.9-2.4-1.4-3.5c-1.6-4.2-3.1-8.4-4.6-12.6
			c-9.2-25.9-20.9-50.8-35.4-74.2c-16.4-26.7-36.2-51.1-57.7-73.9c-1-1.1-3.3-1-3.9,0.5c-22.6,49.9-35.4,102.8-44.8,156.6
			c-0.2,1.1,0.1,2.2,1.1,2.8c13.3,8.1,26.2,17,38.6,26.6c5.8,4.5,11.4,9.1,17,13.9c2.8,2.4,5.5,4.8,8.2,7.3c2.7,2.4,6.1,5.1,3.1,8.8
			c-5.1,6.1-12.2-3.6-15.9-6.9c-6.2-5.4-12.5-10.7-19-15.7c-11.2-8.7-22.9-16.8-35.1-24.2c-48.5-29.5-104.3-47.6-161.4-46.7
			c-113.2,1.7-220.4,73.5-276.3,170.2c-29.6,51.1-44.6,109.1-47.9,167.8c-3.2,57.9,2.9,118,22.6,172.8
			c17.9,49.7,45.2,98.5,83.7,135.2c19.3,18.4,41.7,34,66.4,44.4c25.5,10.8,53,15.9,80.6,16.9c28.8,1,57.4-2.7,85.6-8.4
			c29.4-5.9,59.3-9.8,88.4-17.1c27.7-7,54-17.7,77.7-33.6c22.3-14.9,42.1-33.3,59.1-53.9c3.9-4.8,7.7-9.6,11.4-14.6
			c1.9-2.6,3.8-5.3,5.6-7.9c0.9-1.3,1.8-2.7,2.7-4c0.3-0.4,1.6-3.1,1.9-3.2c-1-0.1-2-0.3-3-0.4c-0.9-1,0,1,0.1,1.8
			c0.3,1.4,0.4,2.8,0.8,4.2c0.5,1.8,1.1,3.2,3.1,3.4c2.7,0.3,3.1-3.4,1.3-4.7c-26-18-46.7-43.8-57.1-73.8c-4.8-14-7.3-30.1-1-44
			c5.9-13.1,18.5-20.8,32.9-19.9c16.9,1,29.3,13.3,35.5,28.3c0.8,1.9,3.4,2.6,4.6,0.6c6.5-11.6,16.8-20.8,30.2-23.1
			c13-2.2,26.1,3.5,33.4,14.5c17.1,25.7-1.7,61.1-17.6,82.7c-8,10.9-17.6,20.7-28.2,29.1c-5.3,4.2-11,8.1-16.8,11.6
			c-2.4,1.4-5.8,2.6-7.9,4.4c-2.3,2-3.7,5.3-5.4,7.8c-16.8,24.7-37.6,46.3-61.8,63.8c-50.1,35.9-109.6,51.9-169,65.1
			c-31.6,7-63.6,13-96.1,12.9c-29,0-58-4.6-85.3-14.6c-54.3-19.8-97.3-61.6-127.1-110.2C103.2,774.6,85.2,714,77.7,653.4
			C70.1,591.3,72.4,527.2,90,467c16.6-57,47.5-109.3,89.7-151.2c41.1-40.8,92.1-73.2,147.7-90c62.1-18.7,129.1-15.9,189.7,7
			c14.5,5.5,28.6,12.1,42.2,19.5c1.3,0.7,3.4,0.2,3.7-1.5c9.1-50.6,24-100.2,44.5-147.5c2.4-5.7,5-11.3,7.6-16.9
			c1.2-2.6,2.1-6.4,5.2-7.3c3.5-1,5.9,2.1,8,4.3c8.1,8.3,15.9,16.9,23.3,25.8c15.1,18,28.7,37.2,40.9,57.4
			c13.9,23,25.8,47.3,35.5,72.4c0.9,2.4,3.9,2.3,4.8,0c11.9-29.8,26.8-58.4,44.6-85.2c8.8-13.3,18.3-26.1,28.5-38.4
			c5.1-6.1,10.3-12.1,15.7-18c2.7-2.9,5.4-5.8,8.2-8.7c2.5-2.6,5.8-7.1,9.9-5.2c3.4,1.6,4.8,8,6.1,11.3c1.6,4.2,3.1,8.5,4.4,12.8
			c2.5,8.1,4.4,16.3,6.3,24.5c3.9,17.5,7.3,35.1,10.3,52.7c6.2,36,10.8,72.2,15.4,108.4c5.1,39.9,9,79.9,15.4,119.6
			C897.9,416.3,902.7,414.9,902.2,411.8z"/>
		<path d="M634.3,728.2c-6-12.4-12.2-26.7-9.9-40.8c1.6-9.7,8-22.5,19.1-23.5c11-1.1,19.4,9.1,23.9,17.8c2.1,4.2,3.4,8.5,4.7,13
			c1.2,4,3.8,6.4,6.8,8.9c5,4.2,12.8,3.3,15.8-2.8c2.1-4.2,2.9-9,5-13.2c2.3-4.6,5.2-9.1,9.1-12.6c9.7-8.7,22.1-5.8,29.1,4.6
			c7.8,11.6,6.1,25.4,1.4,37.9c-10.5,27.7-30.8,51.4-55.8,67c0.8,0,1.7,0,2.5,0C663.9,770.9,645.9,751.5,634.3,728.2
			c-1.4-2.9-5.8-0.4-4.3,2.5c12,24,30.6,44.1,53.5,58.1c0.7,0.5,1.8,0.5,2.5,0c24.3-15.3,43.7-37.4,55.4-63.7
			c5.4-12.1,9.5-26,5.1-39.1c-3.4-10-11.3-19.9-22.3-21.4c-10.3-1.4-19,5.3-24.7,13.3c-3.3,4.6-5.7,9.7-7.6,15
			c-0.8,2.4-1.2,5.9-3.4,7.5c-2.6,1.8-5,0.4-6.9-1.4c-2.1-1.9-4.1-3.4-5-6.4c-0.8-2.7-1.5-5.4-2.5-8c-2-5-4.5-9.7-7.8-13.9
			c-6.1-7.8-15.8-14-26.1-11.5c-11.2,2.7-18.3,14.8-20.4,25.4c-3.2,16,3.3,31.8,10.2,45.9C631.4,733.6,635.7,731.1,634.3,728.2z"/>
	</g>
</g>
</svg>
